# xmcd
#
# Track frame offsets:
#	150
#	37915
#	69692
#	94550
#	140240
#	166575
#
# Disc length: 2663 seconds
#
# Revision: 1
# Processed by: cddbd v1.5.2PL0 Copyright (c) Steve Scherf et al.
# Submitted via: audiograbber 1.83.01
#
DISCID=480a6506
DTITLE=Grateful Dead - 72-08-24 Berkeley Community Theatre, Berkeley CA
DYEAR=1900
DGENRE=
TTITLE0=Sugar Magnolia
TTITLE1=Ramble On Rose
TTITLE2=Greatest Story Ever Told
TTITLE3=Sing Me Back Home
TTITLE4=One More Saturday Night
TTITLE5=Uncle John's Band
EXTD=
EXTT0=
EXTT1=
EXTT2=
EXTT3=
EXTT4=
EXTT5=
PLAYORDER=
